<svg xmlns="http://www.w3.org/2000/svg" viewBox="-272.362 -30.0062 263.5 106.9">
	<path d="M -151.4184 32.7941 L -152.8487 68.6961 L -152.5567 70.6569 L -151.3537 72.3048 L -149.5216 73.6207 L -147.5673 74.1486 L -145.3926 73.9974 L -120.5423 72.5903 L -117.7684 72.0865 L -115.6153 71.1068 L -113.3896 69.2386 L -112.1542 67.5625 L -107.3091 58.1677 L -105.0502 55.1599 L -102.9402 52.9964 L -100.4488 51.1446 L -98.1842 49.8179 L -96.3209 48.8634 L -92.4412 47.9895 L -89.5939 47.9264 L -86.5912 48.4101 L -83.1501 49.6431 L -79.6214 51.4261 L -70.5686 55.5732 L -63.6914 57.687 L -58.7102 58.657 L -54.3023 58.976 L -31.5529 60.1616 L -17.2012 60.8134 L -15.5108 60.7449 L -14.1323 60.6366 L -12.5959 59.8231 L -10.7987 58.2918 L -10.2336 57.2764 L -9.884 56.055 L -9.8704 54.8355 L -10.1503 53.4725 L -10.9435 52.3551 L -11.7368 51.6195 L -13.1063 50.6296 L -19.2004 47.3097 L -28.21 43.5827 L -77.4133 16.8221 L -96.4539 6.408 L -107.0807 0.624 L -115.3356 -3.7642 L -125.6854 -8.644 L -144.5996 -18.4401 L -161.5802 -27.5898 L -163.2152 -28.5959 L -164.5021 -29.0062 L -165.2984 -28.9633 L -166.1809 -28.4315 L -166.4962 -26.9292 L -166.8136 -21.2267 L -167.0304 -19.9972 L -168.3935 -19.2142 L -180.9963 -18.1677 L -183.3735 -17.9148 L -188.7226 -16.7959 L -192.6244 -15.6052 L -199.0292 -12.6869 L -205.0261 -9.1315 L -210.8524 -4.3546 L -233.8906 16.19 L -239.2597 20.849 L -243.0743 24.5906 L -247.7769 29.6573 L -251.4733 34.0613 L -256.6954 41.3122 L -261.2276 47.9822 L -268.2206 57.8535 L -270.8882 62.1335 L -271.3616 64.723 L -271.2915 67.5611 L -270.2845 70.32 L -269.2339 71.8799 L -268.1212 72.9926 L -266.4063 74.2114 L -264.6723 75.0365 L -263.032 75.6312 L -260.1909 75.8878 L -258.0573 75.6836 L -255.947 75.2309 L -253.983 74.3705 L -252.0955 72.9926 L -250.3491 71.1774 L -249.0049 69.1691 L -247.9902 66.0794 L -241.5421 41.3112 L -240.5893 38.2869 L -240.0612 37.0053 L -239.3086 35.6869 L -228.4986 23.6782 L -227.2329 22.4961 L -225.8992 21.7843 L -223.2204 21.2485 L -207.9703 20.6994 L -206.8513 21.1105 L -206.1981 21.9741 L -206.0822 23.1249 L -206.3805 34.6196 L -206.0596 36.0356 L -205.7691 36.9575 L -205.0144 38.007 L -203.4948 39.1914 L -201.4644 39.7633 L -191.2976 41.5865 L -189.4125 41.0788 L -188.1932 40.2551 L -187.3383 38.8326 L -186.5143 36.8243 L -185.9489 35.0452 L -185.4391 32.6301 L -185.195 30.1987 L -184.67 6.1885 L -184.4613 4.148 L -183.9117 1.6025 L -183.0308 -0.8236 L -182.1582 -2.4415 L -180.9155 -3.3985 L -179.437 -4.3597 L -166.6528 -8.7193 L -160.7131 -11.0934 L -159.0116 -11.5113 L -156.8259 -11.6299 L -155.0069 -11.4772 L -152.8533 -11.128 L -151.4512 -10.5142 L -150.5448 -9.4685 L -150.1957 -8.3072 L -150.1873 -5.7854 L -151.4184 32.7941" stroke="#000000" stroke-width="1" fill="none"/>
</svg>