<svg xmlns="http://www.w3.org/2000/svg" viewBox="0.2225 -41.1494 280.2 157.6">
	<path d="M 209.8315 77.6317 L 194.8629 88.0638 L 157.8808 114.1775 L 155.1291 115.421 L 152.6207 114.3985 L 147.2036 109.4023 L 132.2028 99.4748 L 115.646 87.9359 L 102.0862 77.3626 L 89.3508 66.7067 L 66.3972 43.462 L 60.1651 37.3102 L 51.5645 30.5202 L 39.5264 23.3602 L 20.6436 14.5053 L 3.1876 6.365 L 1.7964 4.9356 L 1.2225 3.0878 L 2.3614 1.657 L 5.4954 -0.1612 L 15.5284 -5.1921 L 25.8568 -9.4111 L 36.7202 -13.2441 L 47.3878 -15.9895 L 60.0294 -18.413 L 99.0884 -24.6443 L 116.5468 -28.5064 L 153.0838 -40.0868 L 156.3803 -40.1494 L 158.9106 -38.7959 L 160.4013 -36.822 L 161.0748 -34.4298 L 160.9327 -31.8858 L 159.2083 -25.4269 L 157.6086 -20.9732 L 154.058 -14.4303 L 149.4474 -9.2196 L 143.3225 -4.3771 L 136.206 -0.4078 L 128.1259 1.9525 L 95.6699 8.1762 L 91.7357 10.1888 L 88.8194 12.6053 L 86.6417 15.6965 L 85.0465 19.35 L 84.5956 23.1677 L 85.0081 27.0099 L 86.0227 30.2941 L 87.8137 33.6346 L 89.7056 35.8979 L 114.0197 56.4698 L 117.5108 58.2961 L 122.3673 59.3593 L 127.2967 58.7265 L 131.531 56.7256 L 135.4598 53.1181 L 137.4639 49.7756 L 139.0585 45.0821 L 140.5178 40.5587 L 142.3524 36.4795 L 144.9851 32.7872 L 148.2195 28.8517 L 153.2101 24.6399 L 158.7429 21.1502 L 205.9557 2.829 L 242.2233 -11.3876 L 246.1141 -12.7069 L 250.3688 -12.7554 L 254.3138 -11.5781 L 257.9303 -9.3619 L 261.3174 -5.925 L 277.9581 16.5441 L 279.2332 18.693 L 279.42 20.5606 L 279.046 22.1968 L 276.9693 25.5657 L 273.9495 29.2778 L 269.8756 33.6155 L 265.0954 38.0894 L 259.2004 42.7511 L 209.8315 77.6317" stroke="#000000" stroke-width="1" fill="none"/>
</svg>