<svg xmlns="http://www.w3.org/2000/svg" viewBox="33.9956 -69.227 287.2 142.7">
	<path d="M 193.311 71.8387 L 175.1681 72.2697 L 147.854 72.4758 L 146.277 72.4885 L 144.8402 71.7541 L 144.4074 71.2302 L 144.1768 70.5662 L 143.493 69.0057 L 142.8663 66.9002 L 141.5757 64.7183 L 139.6773 62.3555 L 138.1456 60.7704 L 134.5898 58.2722 L 132.4346 57.3559 L 129.8837 56.7106 L 127.4978 56.5424 L 122.6934 56.6334 L 117.2283 56.9689 L 109.3211 57.2408 L 99.1846 57.0898 L 95.1132 57.0237 L 83.306 55.8947 L 77.2293 55.1277 L 70.301 53.7148 L 56.0342 50.0871 L 52.2025 48.8934 L 49.5125 47.8136 L 48.5339 46.6744 L 48.2027 45.4897 L 48.7148 43.8484 L 51.6481 39.5147 L 56.9879 31.1151 L 57.4491 29.9894 L 57.6076 29.1541 L 57.457 28.3379 L 56.4358 26.3632 L 54.9368 24.7214 L 40.7843 11.9724 L 35.606 7.2895 L 35.2928 6.7576 L 34.9956 3.5935 L 35.2805 1.2385 L 37.8241 -16.4629 L 38.7256 -20.0582 L 44.7299 -35.0708 L 47.1861 -40.5537 L 48.5202 -46.3789 L 49.5191 -50.8156 L 50.5077 -52.2791 L 51.4576 -53.2859 L 52.892 -53.6834 L 55.4992 -53.5133 L 58.2146 -53.733 L 61.5776 -54.3687 L 65.0072 -55.9991 L 68.6137 -58.9237 L 71.6456 -61.7855 L 74.4792 -63.9561 L 78.1966 -65.8382 L 81.8046 -67.1905 L 86.5154 -67.972 L 89.9802 -68.227 L 94.1879 -67.7469 L 98.8708 -66.5784 L 102.8794 -64.596 L 105.8413 -62.9184 L 108.1305 -61.3079 L 124.3397 -50.5266 L 126.0806 -48.8807 L 127.8863 -46.6075 L 129.3502 -43.8876 L 130.3871 -41.3506 L 131.0324 -37.9915 L 131.3672 -35.144 L 131.9255 -31.8336 L 132.6398 -29.7494 L 133.6273 -27.5779 L 134.9845 -25.3493 L 147.387 -7.8475 L 149.0259 -5.8412 L 151.1089 -3.6003 L 153.1214 -1.6568 L 156.944 1.6993 L 160.1835 4.0157 L 164.1834 6.378 L 168.2556 8.4571 L 172.1617 9.8286 L 175.9242 10.9555 L 181.3832 12.0615 L 184.9051 12.6736 L 190.7575 12.7474 L 208.4647 11.4014 L 211.0883 11.0225 L 213.2304 10.3552 L 214.7333 9.7942 L 217.2956 8.3677 L 219.3275 6.5877 L 221.5106 4.1419 L 223.5541 2.0026 L 225.4665 -0.1398 L 227.2179 -1.8376 L 229.0345 -2.9781 L 231.2098 -3.7723 L 232.776 -4.2368 L 236.1506 -4.4906 L 255.3256 -6.3608 L 262.4034 -7.116 L 266.5575 -6.8112 L 269.5875 -6.6387 L 273.5508 -5.8121 L 278.7231 -3.8533 L 284.8208 -1.0008 L 303.2558 8.7527 L 314.8253 15.1063 L 317.8288 17.0889 L 319.3686 18.064 L 320.1817 18.7962 L 319.8936 19.789 L 318.758 22.4697 L 313.485 35.5231 L 307.9963 48.9156 L 307.4813 49.8656 L 306.4443 51.1941 L 304.9201 52.5641 L 302.8313 53.4771 L 300.3199 54.0173 L 298.6138 54.1173 L 296.4225 53.678 L 280.2989 49.1927 L 271.3254 47.2345 L 270.1237 46.9743 L 269.2166 47.0339 L 268.5641 47.3392 L 267.7267 48.1369 L 267.4977 49.0454 L 268.5384 62.0886 L 268.5681 63.7941 L 268.2121 65.2508 L 267.5458 66.8667 L 266.7832 68.1426 L 265.872 69.063 L 264.5761 69.9651 L 262.5418 70.9837 L 260.6295 71.3434 L 259.7578 71.3665 l -66.4468 0.4723" stroke="#000000" stroke-width="1" fill="none"/>
</svg>