<svg xmlns="http://www.w3.org/2000/svg" viewBox="-140.209 70.3494 274.8 164.1">
	<path d="M 91.966 222.0433 L 74.7138 210.7072 L 48.1645 193.5128 L 37.5212 186.9717 L 11.8895 170.4438 L 1.0207 163.9148 L -10.6965 156.2271 L -14.587 153.9512 L -18.9815 151.6462 L -23.2595 149.8608 L -57.741 138.5386 L -60.0178 137.9616 L -62.7041 137.9662 L -65.0634 138.6539 L -75.9509 143.8849 L -78.2421 144.4503 L -81.0451 144.381 L -107.2361 138.0177 L -110.2781 137.8168 L -113.678 138.1501 L -128.3012 139.5753 L -129.873 139.35 L -131.7001 138.6223 L -133.3137 136.9234 L -134.1648 135.092 L -135.074 131.4162 L -136.3207 124.417 L -139.2094 98.4162 L -138.6332 96.373 L -137.5912 94.9956 L -117.0108 78.9248 L -114.6859 77.8148 L -95.9451 71.8686 L -92.2695 71.3494 L -89.3497 71.4927 L -86.5775 72.3337 L -74.6324 77.9077 L -58.1273 87.4187 L -49.0323 94.2405 L -48.2518 95.5214 L -48.2309 96.7164 L -48.5593 97.7651 L -51.649 101.5801 L -52.228 102.9507 L -51.859 104.6618 L -50.9064 105.8265 L -49.9872 107.0902 L -49.4708 108.5491 L -49.3478 111.4062 L -48.4392 112.7533 L -47.9611 113.9327 L -48.2071 115.0787 L -60.8895 131.7658 L -61.4064 133.9218 L -60.4489 135.4651 L -58.4008 136.2727 L -52.7558 137.6578 L -22.1572 147.7555 L -16.6967 149.1888 L -15.4138 149.4562 L -14.4025 148.8504 L -12.0483 145.0097 L -11.0992 144.0641 L -9.9579 144.1215 L 2.2439 149.3823 L 10.6764 153.711 L 24.6246 162.0066 L 26.5963 162.2549 L 27.9731 161.2498 L 41.3888 142.0317 L 43.3867 140.6841 L 45.8004 141.0924 L 70.0151 155.8651 L 97.8919 173.1441 L 117.1915 186.5738 L 133.1642 197.424 L 133.6288 198.4597 L 133.6363 199.511 L 126.5913 210.6647 L 119.8449 222.979 L 113.7995 231.6512 L 112.6331 232.8198 L 111.6322 233.3422 L 110.3137 233.4679 L 109.1046 233.0871 L 91.966 222.0433" stroke="#000000" stroke-width="1" fill="none"/>
</svg>