<svg xmlns="http://www.w3.org/2000/svg" viewBox="-1.4267 -174.81 258 167.9">
	<path d="M 121.0855 -9.7913 L 49.2057 -9.2848 L 2.1103 -9.5371 L -0.0296 -10.3576 L -0.4267 -12.2193 L 0.0476 -14.2607 L 1.1084 -15.8111 L 10.6018 -25.8618 L 11.5047 -28.5362 L 11.1903 -31.4239 L 5.1279 -48.1142 L 4.5365 -52.1432 L 4.6455 -55.8131 L 22.22 -167.3021 L 23.2012 -171.1303 L 25.2392 -173.2263 L 27.923 -173.8102 L 30.4952 -173.5164 L 33.4295 -172.3614 L 36.4269 -170.0789 L 38.8691 -167.3933 L 41.9155 -163.7058 L 52.3086 -150.7049 L 63.8422 -140.3654 L 66.5168 -137.8159 L 70.2634 -135.8153 L 81.2815 -131.4044 L 83.6843 -129.8471 L 85.4312 -127.3718 L 86.8693 -124.9069 L 87.46 -120.8992 L 85.8692 -108.716 L 86.1021 -105.4418 L 86.8837 -102.0802 L 88.4262 -99.3419 L 91.6718 -96.0663 L 123.6848 -72.5666 L 125.9003 -70.2568 L 126.5642 -66.8697 L 124.9801 -64.683 L 121.6427 -63.7991 L 116.5209 -63.7482 L 81.0136 -68.4335 L 58.7901 -71.0677 L 54.4129 -71.4264 L 50.4075 -70.6471 L 47.4291 -69.6692 L 44.4819 -67.7972 L 36.1156 -57.4022 L 35.5005 -55.9953 L 35.9797 -54.4988 L 37.5739 -53.6806 L 64.9714 -50.9713 L 83.2017 -50.6062 L 115.9816 -49.9818 L 150.2122 -49.9196 L 181.4106 -49.7303 L 186.51 -50.4199 L 189.4718 -52.5482 L 191.0202 -55.7567 L 191.7665 -60.1948 L 191.2765 -64.7175 L 189.9653 -70.3413 L 186.9668 -76.0553 L 183.337 -80.8307 L 178.2657 -85.4493 L 173.3545 -88.1978 L 159.0932 -93.1135 L 153.0648 -95.9296 L 149.5048 -98.704 L 146.2453 -102.384 L 143.2913 -106.8208 L 141.5077 -113.0674 L 141.1476 -119.9819 L 142.1131 -124.9392 L 145.0114 -131.6051 L 152.9847 -149.1692 L 155.4436 -152.7931 L 158.3468 -155.9211 L 161.0896 -157.5302 L 164.1514 -159.5127 L 166.947 -159.6104 L 169.8901 -158.1998 L 172.9096 -155.2787 L 176.1818 -151.2367 L 254.0008 -23.0011 L 255.316 -20.6598 L 255.5668 -16.8747 L 254.0604 -15.1809 L 241.9673 -8.9612 L 237.0812 -8.2791 L 227.8137 -8.0833 L 176.9397 -7.9479 L 121.0855 -9.7913" stroke="#000000" stroke-width="1" fill="none"/>
</svg>