<svg xmlns="http://www.w3.org/2000/svg" viewBox="-5.3078 -182.581 246.2 156.6">
	<path d="M 21.143 -50.606 L -1.5689 -33.6306 L -2.6474 -33.3475 L -3.6968 -33.8478 L -4.3078 -35.0842 L -4.0871 -36.5734 L -2.3353 -41.4584 L 1.6538 -53.2817 L 4.2983 -59.056 L 7.7522 -65.1513 L 11.3316 -70.6771 L 15.1757 -75.1809 L 38.0102 -99.6503 L 39.2514 -101.3268 L 40.539 -104.099 L 42.9486 -109.0647 L 44.7023 -111.3269 L 47.2073 -113.3624 L 49.5406 -114.7566 L 52.2205 -115.8211 L 57.2571 -117.0687 L 59.0225 -117.6488 L 60.6186 -118.4739 L 62.6659 -119.9304 L 78.2441 -132.5475 L 88.1382 -140.5766 L 91.9121 -142.9274 L 94.7406 -144.4798 L 99.3525 -146.4639 L 127.717 -158.4977 L 170.7676 -176.8982 L 181.1305 -181.21 L 182.8517 -181.5808 L 184.8225 -181.5038 L 186.4976 -180.6638 L 187.9838 -179.3222 L 189.2464 -177.5366 L 190.4821 -176.5364 L 191.8656 -175.9176 L 193.8877 -175.5368 L 195.8071 -175.8788 L 207.0559 -179.8829 L 209.063 -180.0761 L 210.9223 -179.888 L 213.0945 -178.7369 L 214.6548 -177.2448 L 238.6197 -150.2985 L 239.6291 -148.535 L 239.9122 -146.6823 L 239.5778 -144.6475 L 238.6103 -142.8983 L 237.0778 -141.5581 L 235.4491 -140.8885 L 233.6532 -140.5617 L 231.898 -140.9221 L 230.0312 -141.7385 L 228.6273 -143.0903 L 219.0993 -154.9818 L 217.5027 -156.2036 L 215.9832 -156.7968 L 214.2727 -156.9058 L 212.2228 -156.4946 L 197.2406 -149.2496 L 191.057 -146.8156 L 171.8132 -140.6248 L 160.7352 -137.3771 L 158.8532 -136.7295 L 156.8985 -135.5414 L 155.365 -134.0948 L 153.7842 -132.0133 L 152.6814 -129.7778 L 152.0556 -127.397 L 151.9645 -124.9667 L 152.3891 -117.2033 L 153.0792 -114.3018 L 154.1768 -111.7073 L 155.6772 -109.118 L 157.4444 -107.0754 L 160.1463 -104.7842 L 162.7335 -103.4271 L 166.3816 -102.0408 L 185.5037 -96.9895 L 202.5154 -92.4679 L 205.2084 -91.3807 L 207.1514 -89.9445 L 208.7183 -87.833 L 209.6421 -85.6337 L 209.97 -83.5295 L 209.7782 -81.3527 L 209.1642 -79.443 L 207.5869 -76.2011 L 206.9922 -74.1343 L 206.9 -71.7128 L 207.4519 -69.3703 L 208.4177 -67.2824 L 209.9479 -65.5829 L 211.5737 -64.5774 L 213.7524 -63.3739 L 233.9505 -53.7407 L 235.1926 -52.6881 L 236.1516 -51.3349 L 236.7508 -49.6273 L 236.8686 -47.648 L 236.2965 -45.8498 L 231.4081 -37.0619 L 228.5105 -31.8856 L 227.1077 -30.5082 L 225.3825 -29.0381 L 223.6626 -28.0915 L 221.5881 -27.3139 L 219.4083 -26.94 L 216.7195 -26.9731 L 214.3565 -27.5248 L 211.3184 -28.2505 L 206.7222 -29.3167 L 201.4056 -31.4906 L 196.6999 -34.0142 L 190.9083 -38.0173 L 182.3916 -44.8403 L 178.2837 -48.9526 L 175.5465 -52.5509 L 162.6954 -71.2208 L 160.5316 -73.8882 L 158.057 -76.3668 L 155.3615 -78.6055 L 152.5054 -80.4524 L 149.5442 -82.1358 L 144.2528 -84.2153 L 139.2027 -85.8017 L 127.5473 -89.4038 L 125.0416 -89.9822 L 122.4006 -90.1896 L 119.1543 -89.8885 L 116.3119 -89.0167 L 109.1075 -85.1459 L 101.1675 -80.9189 L 91.2404 -75.7656 L 87.4963 -74.3046 L 83.0182 -72.8155 L 78.8251 -71.7246 L 75.2516 -70.9137 L 58.6548 -67.7239 L 57.5325 -67.7988 L 56.6686 -68.375 L 56.2817 -69.3731 L 56.3267 -71.1598 L 56.1038 -72.9755 L 55.6911 -74.1831 L 54.6857 -74.8926 L 53.6319 -74.9759 L 52.3382 -74.2943 L 42.7146 -66.6617 L 21.143 -50.606" stroke="#000000" stroke-width="1" fill="none"/>
</svg>