<svg xmlns="http://www.w3.org/2000/svg" viewBox="-257 -1 258 155.3">
	<path d="M -2.4238 91.1828 L 0 119.0264 L -0.2988 123.9747 L -1.5605 127.7804 L -3.2041 130.2597 L -6.6406 133.2185 L -10.5584 135.0856 L -15.489 136.5957 L -23.8559 138.7178 L -32.0733 140.8911 L -41.1539 142.1562 L -46.8644 142.697 L -60.709 143.4214 L -72.5282 143.7274 L -77.1429 144.207 L -81.4589 145.9619 L -87.4845 149.2778 L -90.9206 150.6756 L -93.5101 150.6144 L -96.5478 150.0022 L -108.9971 145.2987 L -114.01 144.9926 L -117.5954 145.717 L -120.6495 147.4107 L -127.1396 152.0632 L -130.1274 153.1447 L -133.6463 153.2671 L -136.8497 152.4815 L -140.3686 149.6451 L -142.9579 146.0231 L -145.846 141.0645 L -148.12 137.2078 L -150.7757 134.4837 L -156.0206 131.3514 L -167.5893 125.1889 L -229.9443 91.3052 L -247.2374 80.1943 L -251.4694 77.0519 L -253.7264 74.5216 L -255.22 71.5627 L -256 68.4815 L -255.7677 65.6451 L -255.054 62.5026 L -253.8923 59.8499 L -252.017 57.493 L -249.0298 55.4933 L -247.8681 54.8913 L -241.296 51.8713 L -235.421 48.4941 L -230.5749 44.8721 L -227.6042 42.3928 L -224.5504 39.6176 L -219.5383 34.7203 L -206.4767 23.793 L -205.7796 22.7013 L -205.6137 21.1913 L -206.3273 19.6915 L -210.4765 15.1002 L -211.0242 13.529 L -210.8583 11.9577 L -210.3106 10.6314 L -208.5181 8.754 L -206.4767 6.7645 L -203.1905 4.2852 L -199.672 2.4793 L -196.0704 1.2039 L -192.0041 0.1224 L -190.361 0 L -188.7179 0.3061 L -187.1578 1.2039 L -183.7055 3.3771 L -140.2192 36.72 L -130.5921 44.2089 L -128.7829 45.77 L -126.9902 48.4941 L -126.2101 51.7488 L -126.1271 54.4118 L -126.4425 58.095 L -128.0028 68.359 L -128.4011 71.7464 L -128.5505 75.246 L -128.0028 79.2353 L -127.0732 82.8573 L -125.264 86.112 L -108.3664 107.3747 L -107.4368 108.7623 L -106.5737 110.456 L -106.4077 112.2007 L -106.8891 113.527 L -107.9846 114.7412 L -109.2295 115.4656 L -121.911 119.0876 L -123.7037 120.1793 L -124.7992 121.6791 L -124.8822 123.434 L -124.0191 125.3725 L -122.4588 126.5765 L -120.8155 127.3621 L -116.6658 128.8721 L -113.1469 130.076 L -109.6943 130.9841 L -106.3413 131.4636 L -102.8057 131.7697 L -99.1373 131.5248 L -97.4939 130.8004 L -95.3858 128.9333 L -32.4717 60.0233 L -31.2931 58.1562 L -29.965 55.5545 L -29.5002 52.361 L -29.882 49.0349 L -31.5255 45.6577 L -33.0196 44.4436 L -35.2108 43.5967 L -46.632 42.2092 L -48.9727 41.4235 L -50.8651 39.7401 L -52.1101 37.1996 L -52.5085 34.4244 L -51.7117 31.3431 L -50.2343 29.1699 L -48.5079 27.8436 L -46.4826 26.8131 L -44.2914 26.6294 L -41.9341 27.0579 L -38.0994 28.7414 L -20.5025 37.6179 L -17.1325 40.4645 L -14.3103 43.2396 L -10.8739 47.229 L -8.5995 50.4837 L -6.873 54.5954 L -5.7109 58.1562 L -4.7646 65.7063 L -2.4238 91.1828" stroke="#000000" stroke-width="1" fill="none"/>
</svg>