<svg xmlns="http://www.w3.org/2000/svg" viewBox="9.5398 -25.6838 257 93.26">
	<path d="M 197.4531 15.1996 L 212.0381 18.5325 L 222.7984 20.9662 L 230.5753 23.1571 L 236.6119 25.7768 L 251.742 35.0715 L 253.8114 35.623 L 255.6073 34.8987 L 259.9192 31.1329 L 261.0589 30.5159 L 262.6561 30.7095 L 263.9766 31.5319 L 265.0638 32.8543 L 265.5422 34.6392 L 265.4181 36.5566 L 264.4284 38.679 L 262.8262 40.7799 L 258.6477 45.63 L 255.5966 48.8353 L 251.9427 51.5413 L 248.0406 53.9364 L 237.465 58.7319 L 230.8114 61.4058 L 229.0074 61.6556 L 227.7623 61.3391 L 226.6448 60.7491 L 224.4883 58.7329 L 223.0457 57.7157 L 221.688 57.2893 L 220.3519 57.3438 L 205.0043 61.2692 L 202.8659 62.2359 L 199.2652 64.3006 L 196.8867 65.4309 L 193.2851 66.1975 L 189.9085 65.9896 L 186.6229 65.4107 L 184.1536 64.5923 L 166.8588 56.4587 L 165.4052 55.7809 L 163.9753 55.8605 L 162.5636 56.5689 L 161.2089 58.3144 L 160.6187 61.2317 L 160.1033 62.8288 L 158.7341 64.4298 L 156.9946 65.5249 L 155.3988 66.1359 L 153.5957 66.5239 L 152.0985 66.5722 L 149.2979 66.2884 L 145.9848 65.6277 L 141.9099 64.7382 L 138.7481 63.4016 L 124.9937 58.2855 L 117.8726 54.8271 L 112.1777 51.9648 L 106.0713 48.5087 L 101.3766 45.5041 L 97.7452 42.9954 L 81.0335 29.495 L 79.6757 27.9087 L 79.5126 26.4661 L 79.8023 25.1771 L 80.4727 23.3881 L 80.6531 21.8415 L 80.5019 20.1977 L 79.6858 18.1175 L 78.4689 16.2639 L 76.5711 14.219 L 59.8861 0.8 L 50.5272 -5.8035 L 43.6384 -9.7623 L 36.4072 -13.4788 L 33.9712 -14.5458 L 31.3086 -15.4429 L 12.9613 -19.8526 L 11.8989 -20.2102 L 11.0632 -20.7377 L 10.5398 -21.9349 L 10.9878 -23.5635 L 11.7552 -24.3655 L 12.8213 -24.6838 L 13.5552 -24.6057 L 17.4822 -23.2568 L 23.4628 -21.1456 L 25.4665 -20.4869 L 27.9051 -20.234 L 34.0563 -20.3515 L 39.5146 -20.4591 L 73.0728 -18.201 L 77.3457 -17.7703 L 162.9869 2.3203 L 166.5294 3.1568 L 167.5313 3.8193 L 168.0271 4.9347 L 167.9224 6.4593 L 168.3698 7.6785 L 169.1536 8.4574 L 170.3913 8.9656 L 185.2852 12.3048 L 197.4531 15.1996" stroke="#000000" stroke-width="1" fill="none"/>
</svg>