<svg xmlns="http://www.w3.org/2000/svg" viewBox="-327.776 -85.8179 280 181.7">
	<path d="M -205.5644 -52.5272 L -199.1211 -71.3244 L -197.4804 -74.4481 L -195.1777 -77.994 L -192.1101 -80.4988 L -189.7887 -82.0681 L -186.0971 -83.7416 L -182.905 -84.6034 L -179.773 -84.8179 L -176.5301 -84.3924 L -173.3975 -83.7545 L -170.6819 -82.133 L -167.7063 -80.0585 L -165.6658 -78.1654 L -163.9066 -76.0526 L -162.8095 -73.5177 L -162.3095 -70.6606 L -163.137 -65.5887 L -165.5046 -61.9429 L -168.4448 -59.805 L -170.4987 -59.4585 L -172.4015 -59.5581 L -174.3851 -60.7279 L -176.7549 -63.0953 L -180.1193 -66.9606 L -181.6789 -68.3994 L -183.8871 -68.8393 L -186.8003 -68.3644 L -189.7512 -66.2099 L -191.1513 -62.6459 L -191.1517 -60.2557 L -190.0223 -57.9838 L -188.8085 -55.7992 L -186.9711 -53.2095 L -184.6121 -50.8255 L -181.6038 -48.5879 L -178.6288 -47.366 L -174.6587 -47.0362 L -172.1238 -46.9285 L -166.0591 -47.6052 L -151.149 -50.2535 L -138.0711 -51.2751 L -128.5177 -52.9288 L -116.2261 -54.745 L -111.1369 -54.5169 L -107.8374 -53.7943 L -82.3763 -47.3422 L -74.6493 -45.543 L -67.2143 -43.5075 L -65.5902 -42.5947 L -64.8767 -40.877 L -65.2928 -38.6148 L -67.8364 -35.9354 L -71.9956 -34.1395 L -75.917 -32.9229 L -80.4925 -32.1074 L -86.7843 -30.868 L -93.6678 -30.723 L -107.4052 -31.5024 L -125.8964 -32.5999 L -131.2582 -32.579 L -135.8014 -32.0265 L -140.2663 -30.9972 L -144.1286 -28.8901 L -147.6636 -26.2629 L -150.6875 -23.1854 L -153.3686 -19.0568 L -155.015 -14.9428 L -156.0313 -10.5615 L -156.1121 -5.5727 L -155.5476 -0.4252 L -154.148 4.2469 L -149.8482 11.1101 L -143.3487 21.6266 L -141.7246 25.3558 L -141.0706 28.5733 L -141.2088 31.9864 L -141.9975 36.6575 L -143.9625 40.2807 L -146.1597 43.0667 L -148.903 45.072 L -151.9975 46.4233 L -154.4624 47.1893 L -157.0813 47.595 L -175.9671 45.697 L -179.0535 46.2252 L -181.1021 47.9716 L -182.0723 50.2763 L -182.5533 52.6385 L -177.6403 66.1955 L -176.3485 68.4308 L -174.6138 69.5574 L -172.4704 70.0973 L -130.5828 71.9511 L -105.34 72.5101 L -77.1918 73.4176 L -75.5649 72.1073 L -74.9213 70.1348 L -75.2782 67.6545 L -76.1725 64.4229 L -77.2184 61.2113 L -77.2483 58.8251 L -76.5402 56.3264 L -74.7644 54.4028 L -71.4293 53.4918 L -66.9186 52.7762 L -63.7861 52.9881 L -61.1729 53.5728 L -57.7752 55.2112 L -55.0591 57.2591 L -52.635 59.5433 L -50.6351 62.0965 L -49.0514 66.4858 L -48.7674 69.8891 L -49.4267 73.9341 L -50.8893 77.7652 L -52.3462 80.606 L -54.6297 83.7383 L -58.3893 87.3085 L -61.3729 89.2998 L -64.7917 91.1504 L -71.0271 92.6867 L -78.1488 92.9848 l -81.6389 0.2122 L -210.2346 93.6425 L -236.4849 93.8255 L -260.0187 93.6663 L -290.1951 94.0926 L -322.0529 94.847 L -324.5554 94.4763 L -326.3226 93.1866 L -326.7765 91.0694 L -325.2605 89.1191 L -320.4768 86.1904 L -317.1227 84.8657 L -313.3314 83.4226 L -255.1561 80.1619 L -253.6025 79.3484 L -251.8724 77.1111 L -236.9369 35.38 L -205.5644 -52.5272" stroke="#000000" stroke-width="1" fill="none"/>
</svg>