<svg xmlns="http://www.w3.org/2000/svg" viewBox="-257 -219.181 258 220.2">
	<path d="M -31.2692 -99.6916 L -59.964 -30.3214 L -70.8698 -4.8632 L -73.337 -2.0507 L -76.6802 -0.4687 L -80.3274 0 L -83.7064 -0.7031 L -86.8887 -2.871 L -89.1057 -5.5956 L -90.2856 -8.9939 L -90.375 -12.7731 L -87.2106 -20.1264 L -78.1105 -42.2739 L -75.1784 -52.5859 L -73.9985 -63.3372 L -74.6242 -73.4146 L -73.6767 -77.5158 L -71.4419 -80.2695 L -66.9723 -83.902 L -62.163 -85.8062 L -48.8794 -90.9913 L -45.4646 -93.5692 L -44.535 -97.3774 L -44.4098 -100.8048 L -45.7864 -104.2908 L -48.3609 -106.7808 L -51.579 -108.099 L -56.5134 -107.9818 L -80.8459 -100.2189 L -92.145 -98.1098 L -101.8887 -97.7875 L -110.506 -98.432 L -118.6586 -99.8088 L -124.469 -101.5958 L -133.9803 -103.617 L -142.7586 -104.3787 L -148.9802 -103.0897 L -156.4713 -101.127 L -165.4819 -96.5865 L -176.0659 -89.673 L -183.2351 -86.2749 L -189.6177 -84.4293 L -198.0384 -83.4919 L -204.6713 -83.6384 L -232.3291 -85.3375 L -238.7116 -86.8022 L -244.6294 -89.7609 L -248.8308 -93.3641 L -251.5304 -97.2016 L -254.1585 -101.5958 L -255.553 -106.6636 L -256 -112.0244 L -255.4994 -117.268 L -253.9619 -122.5994 L -250.6365 -128.3995 L -237.925 -145.7411 L -233.2409 -153.4452 L -222.6211 -176.3813 L -217.5258 -178.1681 L -211.2326 -178.9004 L -205.2076 -178.6075 L -198.1099 -177.4065 L -190.744 -174.8874 L -182.8597 -171.1087 L -175.0469 -165.5431 L -170.2197 -160.1825 L -169.3437 -156.9017 L -170.1124 -153.4452 L -173.116 -149.1098 L -177.4068 -146.3563 L -183.7179 -144.0421 L -194.4985 -142.3431 L -204.8858 -139.736 L -214.3613 -136.1037 L -219.5997 -132.4127 L -221.5842 -127.9894 L -221.8524 -123.156 L -220.1539 -118.3518 L -215.7737 -113.9871 L -211.8405 -112.6103 L -191.4055 -110.1203 L -170.8276 -110.1789 L -148.9624 -112.8153 L -130.4762 -117.473 L -119.034 -121.0761 L -106.4119 -125.7631 L -94.344 -130.8895 L -84.5109 -136.7188 L -80.8995 -138.2714 L -78.325 -137.7734 L -75.9114 -134.434 L -73.337 -129.5713 L -69.7971 -127.3743 L -65.256 -127.1985 L -60.8221 -129.2783 L -58.4622 -132.4713 L -57.3716 -135.8986 L -58.4622 -142.8704 L -68.3668 -200.6937 L -68.5813 -204.5602 L -67.4907 -208.5146 L -65.7387 -211.8538 L -64.0402 -213.9921 L -59.8388 -216.8334 L -55.3514 -217.8586 L -36.3288 -218.1808 L -32.4492 -217.9758 L -26.7996 -217.097 L -20.9534 -215.1931 L -16.1441 -212.9962 L -9.7437 -207.9581 L -5.578 -202.3926 L -2.7354 -197.6181 L -0.6615 -191.1738 L -0 -185.5205 L -0.59 -176.2934 L -2.3421 -169.7319 L -29.7853 -103.1483 L -31.2692 -99.6916" stroke="#000000" stroke-width="1" fill="none"/>
</svg>