<svg xmlns="http://www.w3.org/2000/svg" viewBox="-1 -1 258 134.3">
	<path d="M162.40384033212203,15.450037723638193 157.8646369415687,15.388114249600333 129.5444362755502,9.304112337858049 119.43640531072795,8.235924587081907 113.54651213077508,8.174000621024032 83.99740518098048,10.821246402854198 69.48302555895542,14.258010108966857 67.6784154305214,15.450037723638193 66.81485966352294,16.51821698327145 66.56022142454898,17.508990824966684 65.49738355749,22.137748035759067 64.71132638497497,23.608418461672134 62.906716256540946,24.862356626427083 49.554815551605145,31.65836172622458 47.56199455086085,33.88756415988701 26.017385287386833,87.29390215233148 25.762747048389716,88.71802814654778 25.79596073173314,90.45174373294076 28.07663365479481,98.74876533214398 28.07663365479481,100.06451738681594 27.33486139341978,101.67437612971405 26.50451930976475,102.77341266987756 0.9964105003489888,124.59907395747004 0.26570946677053653,125.85287260166862 0,127.33885393654323 0.3210656056839595,128.9331853717958 1.2621199671426813,130.8370920578419 2.479955023145362,131.8741777591517 3.863858495865155,132.29210748320668 5.989534229983136,132.26114973222604 47.119145439599784,126.92092193189399 51.80227479132339,126.59586357309871 58.72179215499183,126.9828377964792 63.73705834017282,127.71034888999303 70.56800588158441,129.0105800304083 77.57609306750969,130.29533039917592 81.20745577994774,131.00735994077542 83.49919993078282,130.5429929119158 85.23738269255315,129.6761738219012 87.48484193227141,127.49364351895146 89.74337239976308,123.40718969040385 93.208666695484,114.75437256542808 94.01686632356903,110.96196696679314 94.27150456254299,106.6587283615458 93.59615966783164,102.27807242215803 88.58089348267382,78.53238219586409 88.64732084936065,77.04632095127015 89.35587942739227,75.34353945119551 92.27868356182185,70.74601344290089 96.09825714654701,64.8017028693279 97.21645115251943,64.22894172124906 98.69999567529264,64.07414134922718 99.72961985900821,64.5230623560938 105.38701725553396,66.7986240454775 107.12520001728114,67.03082389692624 166.43376724472745,66.64382411129044 167.1976819616725,66.96890394251726 167.93945422304753,68.73362099316473 168.49301561213545,70.28161558146614 169.13514682350336,70.66861381583098 170.38619556284945,70.69957366715911 194.0675517882612,60.94716817424685 197.05678328935448,59.27531671049522 206.92124724299936,52.46403817315444 212.56757341175168,47.32458507604123 218.03675993599032,41.82905333046252 231.3886606409261,28.73252522225224 234.09004021967885,26.8129236618444 237.02391558188188,25.373219826507285 254.49431302165678,17.617356648311105 255.81178912768974,16.332446767617327 256,14.304452772454876 255.64572071097263,12.694439045752326 250.3758162867945,1.548111829391141 249.1469100030184,0.4953960728182133 247.79622021361888,0.07740565403723802 245.90304026292802,0 244.38628205683455,0.38702820488609374 220.90420793148334,9.304112337858049 212.56757341175168,12.524148965046761 208.02837002119833,14.165124774488255 204.07594170307632,15.063015942614344 201.40777580764387,15.54292292659036 162.40384033212203,15.450037723638193" stroke="#000000" stroke-width="1" fill="none"/>
</svg>