<svg xmlns="http://www.w3.org/2000/svg" viewBox="-118.983 87.1704 206.4 195.8">
	<path d="M -117.2503 163.1958 L -116.6381 109.2161 L -116.6335 93.3952 L -115.8457 91.3527 L -114.775 89.6721 L -112.9928 88.5208 L -111.1809 88.1704 L -109.5605 88.452 L -107.9651 89.2355 L -106.2445 90.8657 L -104.1091 93.5989 L -98.3463 101.3563 L -95.2376 107.1277 L -92.9883 112.8669 L -91.1 119.2501 L -90.3046 124.5777 L -90.0447 128.8766 L -90.3187 172.7641 L -89.8044 175.5579 L -88.7468 177.8268 L -87.2452 179.7487 L -85.4899 180.8896 L -83.5532 182.1098 L -81.4836 182.6233 L -79.3947 182.78 L -77.6908 182.6345 L -75.6014 182.0673 L -73.2427 180.5863 L -72.0801 179.5573 L -70.8732 177.6698 L -69.6263 175.8716 L -62.5178 157.8168 L -60.7093 155.0974 L -58.9021 153.4443 L -56.9044 152.6071 L -54.3554 151.5602 L -51.8559 150.7931 L -28.061 146.01 L 14.6137 137.1686 L 21.634 136.0853 L 28.3946 135.9283 L 36.1309 136.2954 L 38.0599 136.0947 L 39.8417 135.6673 L 41.4292 134.6481 L 42.7533 132.9102 L 63.4963 105.5294 L 65.3777 103.8182 L 67.4679 102.5269 L 69.8019 101.5475 L 72.2676 100.9275 L 74.8985 101.2436 L 77.5968 101.9893 L 79.9836 103.0991 L 81.7783 104.6715 L 83.4984 107.0257 L 84.6876 109.6539 L 85.6455 113.2066 L 86.0807 117.7303 L 86.2775 121.0335 L 86.4055 124.9732 L 86.3914 129.2651 L 85.516 135.3153 L 81.2345 161.4919 L 80.271 163.3099 L 79.2993 164.4309 L 78.0195 165.3101 L 76.408 165.3833 L 74.353 165.0796 L 72.64 164.8703 L 71.4876 165.1879 L 69.9733 166.4916 L 68.5167 168.2124 L 53.088 188.5873 L 51.3469 191.7364 L 50.926 193.3716 L 50.6161 194.9201 L 50.5958 196.7247 L 51.2135 198.3926 L 52.6553 201.3059 L 59.4486 213.2427 L 60.3145 216.1436 L 60.4445 218.2931 L 60.4086 220.2304 L 59.5527 222.5673 L 58.3552 224.0857 L 56.9669 225.8939 L 55.0427 227.3973 L 52.6593 228.6564 L 31.8393 240.6418 L 28.4504 243.169 L 26.5352 245.0271 L 24.8287 247.305 L 23.363 249.7766 L 14.8091 273.3421 L 13.1022 276.3438 L 11.52 277.9417 L 9.9319 279.3031 L 8.0172 280.4373 L 5.967 281.4361 L 3.8191 281.9285 L 1.3386 281.9571 L -32.9818 279.7493 L -64.0767 278.2372 L -74.4527 277.5408 L -76.2731 276.8125 L -77.4332 275.7091 L -78.1745 274.3789 L -78.3732 272.866 L -78.239 271.093 L -74.3849 250.4758 L -74.0304 247.3449 L -73.7451 233.6763 L -74.1187 231.5966 L -74.6587 229.6469 L -75.794 227.6599 L -77.1696 226.2424 L -79.7503 224.9223 L -82.1129 224.7584 L -84.3038 225.0432 L -86.0084 225.5308 L -87.8733 226.7667 L -89.4466 228.3376 L -90.5179 230.3604 L -91.0807 232.3477 L -91.475 259.1854 L -91.8807 264.3862 L -92.687 266.4431 L -94.2608 268.7379 L -96.4689 270.9454 L -98.9014 272.4842 L -101.4008 273.2511 L -103.9246 273.796 L -106.5892 273.6268 L -109.8634 272.4868 L -112.6683 270.8796 L -115.0381 268.5708 L -116.822 265.563 L -117.7711 262.3653 L -117.9829 258.8528 l 0.7327 -95.657" stroke="#000000" stroke-width="1" fill="none"/>
</svg>