<svg xmlns="http://www.w3.org/2000/svg" viewBox="-12.9944 -151.923 267.4 134.8">
	<path d="M 161.5661 -18.9818 L 110.7642 -18.8586 L 89.452 -18.9566 L 88.5707 -19.0914 L 88.021 -19.6514 L 87.8378 -20.3909 L 87.8746 -21.3248 L 87.864 -22.1992 L 87.7282 -22.9981 L 87.2488 -23.509 L 86.5966 -23.885 L 86.0379 -23.9467 L 85.4234 -23.893 L 74.1568 -19.8482 L 71.0563 -19.1439 L 68.2334 -18.7311 L 65.1284 -18.6806 L 49.9925 -18.4989 L 47.4958 -18.7227 L 45.1604 -19.062 L 42.631 -19.6608 L 39.8822 -20.5075 L 37.1844 -21.5246 L 34.1208 -23.1086 L 31.5623 -24.7921 L 28.6193 -27.1053 L 25.9717 -29.6563 L 23.4923 -32.5445 L 21.2944 -35.6785 L 19.1112 -39.2468 L 17.4894 -42.8734 L 15.9656 -46.8864 L 14.7477 -51.4698 L 13.8994 -56.1961 L 10.6801 -74.6189 L 7.3314 -97.232 L 7.0953 -98.575 L 6.6545 -99.246 L 5.9879 -99.7865 L 3.2678 -100.3041 L 2.5068 -100.5692 L 1.9627 -101.0653 L 1.5811 -101.9625 L 0.7492 -104.9948 L -0.2766 -108.2866 L -2.2365 -112.9157 L -11.2501 -133.5589 L -11.8424 -135.3591 L -11.9944 -137.0965 L -11.827 -138.7973 L -11.4471 -140.0283 L -10.8671 -141.2308 L -10.2162 -142.375 L -8.8569 -143.8576 L -7.7595 -144.7184 L -6.3814 -145.3826 L -4.8101 -145.7965 L 5.2179 -147.5952 L 22.3262 -150.8427 L 23.874 -150.9228 L 24.8917 -150.7354 L 25.7923 -150.3812 L 26.4685 -149.7308 L 27.4451 -148.5079 L 36.1804 -135.2576 L 43.5117 -124.5013 L 48.0111 -117.8001 L 50.2839 -114.5621 L 53.3265 -110.9584 L 55.6733 -108.3811 L 57.9733 -106.1867 L 69.6573 -94.77 L 78.3733 -86.7055 L 96.2584 -69.6118 L 107.0396 -59.3232 L 108.7152 -57.9402 L 109.7477 -57.4317 L 110.7379 -57.4077 L 111.9146 -57.5107 L 114.4698 -58.1212 L 115.8722 -58.3545 L 117.9118 -58.5329 L 119.0375 -58.4656 L 120.4879 -58.1502 L 122.2052 -57.6462 L 123.9731 -56.7136 L 125.8269 -55.4016 L 127.3853 -53.8518 L 128.5496 -52.59 L 129.4218 -51.9568 L 130.5672 -51.5134 L 132.65 -51.198 L 142.0579 -50.8786 L 152.0849 -50.558 L 241.8641 -49.1434 L 245.1004 -49.0395 L 246.6234 -48.795 L 248.2192 -48.1698 L 249.5514 -47.2452 L 250.7666 -46.1537 L 252.011 -44.5764 L 252.8516 -42.7979 L 253.4154 -40.7188 L 253.4415 -38.9151 L 253.2219 -37.2098 L 252.6472 -35.1969 L 251.9501 -33.2286 L 251.0929 -31.7346 L 249.9459 -29.9389 L 248.0723 -27.8677 L 246.3427 -26.408 L 244.468 -25.1014 L 242.2137 -23.9183 L 239.7054 -22.7775 L 237.1134 -21.8412 L 234.8676 -21.313 L 231.4493 -20.6362 L 228.003 -20.2794 L 224.7397 -19.9386 L 218.2831 -19.2079 L 212.6192 -18.6018 L 206.4523 -18.1728 L 198.3248 -18.1712 L 172.5739 -18.5904 L 161.5661 -18.9818" stroke="#000000" stroke-width="1" fill="none"/>
</svg>