<svg xmlns="http://www.w3.org/2000/svg" viewBox="-1 -1 258 138.7">
	<path d="M 218.6136 72.9979 L 234.4066 92.0086 L 252.8795 114.6468 L 254.5708 117.0412 L 255.5117 119.5372 L 256 121.7865 L 255.9643 123.9922 L 255.6903 125.6901 L 253.5346 132.3508 L 252.5103 134.0921 L 251.0215 135.4127 L 249.7709 136.1237 L 247.5199 136.6751 L 245.4713 136.6026 L 243.2202 135.848 L 241.124 134.1937 L 238.9921 130.9722 L 228.0942 114.2405 L 226.0337 112.4846 L 224.259 111.9186 L 221.5792 111.4543 L 215.9457 111.4107 L 213.111 110.5981 L 211.1101 109.1904 L 209.5975 107.3475 L 208.8829 105.548 L 206.346 95.9122 L 205.2859 93.4452 L 203.5947 91.3265 L 201.6295 89.8898 L 199.1521 88.7289 L 196.6152 88.25 L 190.0646 88.1484 L 187.0394 87.5679 L 184.967 86.5811 L 182.8231 84.9268 L 181.251 82.6194 L 180.2862 80.2684 L 179.8455 78.0481 L 179.8694 75.9293 L 180.2743 74.1299 L 183.4901 65.3355 L 183.9784 63.5505 L 184.0618 61.1995 L 183.7164 59.6467 L 182.8708 57.3973 L 181.6083 55.4817 L 179.1905 53.7693 L 176.2486 52.1729 L 172.7589 50.4169 L 169.6861 49.1834 L 167.3993 48.5448 L 164.1835 48.0079 L 160.5389 47.9498 L 157.6686 48.0659 L 155.2746 48.7045 L 153.3332 49.5317 L 150.308 50.8233 L 147.1279 52.6083 L 143.4715 55.5978 L 140.613 58.6309 L 128.5955 73.2011 L 127.9762 74.0428 L 126.0586 74.4927 L 108.5028 76.0745 L 107.3714 75.9293 L 106.1684 75.1167 L 105.6801 73.738 L 105.4657 72.5771 L 102.7978 61.6059 L 99.2366 40.9984 L 98.5577 37.2106 L 98.391 35.295 L 98.5816 33.3213 L 98.9627 31.275 L 99.7726 29.1562 L 100.6897 27.0518 L 103.5243 20.5502 L 103.8221 19.5488 L 103.6077 18.6345 L 103.0717 17.7927 L 102.1546 17.1687 L 101.0946 16.8349 L 100.0703 16.9075 L 98.9031 17.6912 L 97.9384 19.0844 L 93.8055 26.2246 L 90.4468 31.6088 L 88.2553 34.8015 L 86.445 36.9059 L 84.8847 38.241 L 82.2049 40.3598 L 79.3822 41.8691 L 76.4284 42.7544 L 71.2831 43.509 L 66.4118 43.7122 L 62.7435 43.4365 L 58.3724 42.4787 L 53.5844 41.129 L 48.2248 39.1263 L 44.8423 37.5589 L 41.8766 35.7739 L 39.1372 33.7276 L 36.243 31.1299 L 33.2536 27.821 L 31.2764 24.933 L 29.5018 21.7692 L 25.1188 10.101 L 22.7725 4.9924 L 21.5815 2.9461 L 19.9617 1.4368 L 17.8416 0.4789 L 15.3047 0 L 12.2676 0.0726 L 9.4568 0.4789 L 6.7055 1.0885 L 4.0257 2.1915 L 1.8342 3.8604 L 0.5121 5.9793 L -0 8.0547 L 0.1548 10.667 L 0.7503 12.6117 L 1.6198 14.5709 L 3.1086 16.2109 L 6.0504 18.9683 L 9.7307 22.0305 L 13.3276 25.1797 L 17.8893 28.6337 L 23.106 32.1893 L 28.4418 35.5272 L 34.4089 38.3716 L 39.7447 41.1 L 45.2234 43.1898 L 54.1204 46.2664 L 63.9107 50.0831 L 75.7614 54.2337 L 87.5169 57.9488 L 95.6516 60.7642 L 106.1684 64.7841 L 108.5743 65.3936 L 110.9683 65.4661 L 113.5052 64.9872 L 115.9706 64.3052 L 120.4131 62.5927 L 124.4984 60.5465 L 127.9285 58.4277 L 131.4778 55.6704 L 138.1118 49.4591 L 147.1994 40.9839 L 149.7244 38.8941 L 151.5228 37.6315 L 153.1665 36.5431 L 154.3337 35.8464 L 154.9649 35.7884 L 155.7986 36.1367 L 157.8472 37.9653 L 159.3241 39.1988 L 160.527 39.5471 L 161.6585 39.3294 L 162.9925 38.4442 L 165.184 36.456 L 167.6494 34.6854 L 170.4007 33.5244 L 173.7594 33.2342 L 176.8918 33.4083 L 180.2028 34.0904 L 183.5139 35.382 L 186.3247 36.7317 L 189.8502 39.1263 L 193.0183 42.0723 L 196.2698 45.7004 L 218.6136 72.9979" stroke="#000000" stroke-width="1" fill="none"/>
</svg>