<svg xmlns="http://www.w3.org/2000/svg" viewBox="-1 -152.453 258 153.5">
	<path d="M 241.352 -127.7612 L 222.6317 -151.0626 L 221.1082 -151.4531 L 219.4383 -150.3762 L 219.3797 -148.5892 L 220.0389 -136.4001 L 226.8357 -126.0216 L 228.696 -121.7731 L 228.989 -117.7732 L 227.3191 -114.0809 L 223.2615 -110.2585 L 215.0145 -106.9095 L 94.5985 -105.7142 L 92.8844 -106.4124 L 92.3277 -108.6017 L 92.4156 -130.0452 L 91.0825 -134.1753 L 88.1964 -137.4533 L 79.6261 -144.1514 L 72.4476 -146.968 L 65.9428 -147.4295 L 62.8223 -146.7313 L 61.958 -143.9266 L 60.6394 -143.0627 L 48.3917 -145.323 L 46.8387 -145.0982 L 46.4431 -142.6722 L 45.5055 -105.6314 L 43.513 -91.9511 L 41.3301 -87.4305 L 36.1877 -82.4365 L 27.617 -78.1525 L 12.2043 -71.5964 L 7.7651 -67.3835 L 4.7616 -63.0167 L 3.1207 -58.5789 L 0 -45.6324 L 0.8644 -43.0644 L 3.1207 -42.4372 L 40.2459 -22.1653 L 57.7826 -13.7986 L 75.9636 -7.8697 L 90.5404 -4.1301 L 107.8859 -1.8698 L 119.1954 -1.4793 L 158.3385 -1.8698 L 245.7904 0 L 247.8997 -1.6331 L 249.3791 -4.9112 L 249.6868 -7.4792 L 252.8068 -10.5205 L 254.9161 -12.2365 L 255.6924 -15.2068 L 256 -107.3118 L 254.9161 -110.1165 L 241.352 -127.7612" stroke="#000000" stroke-width="1" fill="none"/>
</svg>