<svg xmlns="http://www.w3.org/2000/svg" viewBox="1.705 -5.459 260.4 163.1">
	<path d="M 46.8022 -2.9112 L 110.9323 -3.017 L 131.7109 -3.2073 L 153.4725 -4.293 L 164.0116 -4.459 L 191.2655 -4.4435 L 238.811 -4.0717 L 248.6851 -3.4867 L 250.416 -3.0724 L 251.3866 -2.4516 L 251.9964 -1.3218 L 252.2608 -0.2431 L 252.1301 11.5317 L 252.4941 12.5167 L 253.1761 13.3574 L 258.452 15.3258 L 259.9755 15.8689 L 260.8987 16.9547 L 261.0552 18.0684 L 261.089 25.3965 L 260.4655 32.0597 L 258.9484 38.6492 L 257.0116 44.6601 L 240.732 83.9503 L 220.7525 127.8049 L 219.4994 130.7905 L 219.5117 132.4825 L 220.0384 133.8232 L 220.9553 134.7304 L 229.2445 138.3475 L 230.1045 138.9838 L 230.3825 140.1602 L 229.9909 141.2514 L 228.8498 142.6272 L 216.0638 155.4229 L 214.7352 156.2672 L 213.562 156.6114 L 212.4224 156.393 L 209.5719 155.0999 L 208.9758 154.0679 L 208.6655 151.8599 L 208.0354 99.9031 L 207.7236 98.3529 L 206.8541 96.9807 L 205.7071 95.9065 L 204.0236 95.0273 L 195.7316 91.3905 L 192.6552 89.2923 L 190.7815 87.862 L 188.7018 84.9661 L 186.3028 80.6008 L 184.1832 78.0892 L 181.9393 76.4319 L 179.5695 75.3502 L 176.4394 74.475 L 152.3618 74.1925 L 149.6293 73.7397 L 147.8125 72.5803 L 146.9094 71.7707 L 146.0831 70.5717 L 141.6917 61.5248 L 140.454 59.8058 L 138.6799 58.2817 L 134.5408 56.5122 L 115.7664 49.5663 L 110.4384 48.1631 L 102.8928 47.4303 L 43.2217 47.1686 L 41.9605 46.8875 L 41.2111 46.2356 L 40.4907 45.1214 L 40.1604 43.5737 L 37.0718 28.6846 L 34.4128 18.4575 L 33.803 17.3277 L 32.8187 16.6092 L 31.5438 16.2304 L 30.0388 16.6213 L 28.6072 18.3369 L 26.964 21.756 L 25.8951 22.8428 L 24.5529 23.5894 L 22.92 23.7392 L 20.9405 23.1605 L 18.6229 22.4501 L 16.4496 22.0979 L 6.3803 22.3972 L 4.6632 22.0806 L 3.7985 21.5446 L 2.9831 20.4237 L 2.705 19.2473 L 2.9491 16.3038 L 3.8383 12.333 L 5.2576 8.9254 L 7.4552 4.7707 L 10.2627 1.7459 L 14.0134 -0.8536 L 17.5778 -2.3708 L 21.158 -2.9736 L 26.4828 -3.0643 L 46.8022 -2.9112" stroke="#000000" stroke-width="1" fill="none"/>
</svg>