<svg xmlns="http://www.w3.org/2000/svg" viewBox="-1 -1 258 102.6">
	<path d="M138.54935736058277,88.56391305212883 133.5969259306797,89.94091724734352 128.62753411932286,91.05383782230217 121.30064926489352,91.22360531885452 115.55107989928538,90.18613708304379 108.8178084008457,87.1680449137916 74.65959984109641,66.68263588449237 69.75804955612217,63.721101629631875 67.24791307797933,63.28724596156811 64.36464820444839,63.060886448560744 61.48138333120123,63.43815229066066 57.81794090370276,64.58881271240736 54.731151451024004,66.32423385993864 51.576520471678855,68.87077330564632 48.2862064395685,71.05890857036368 43.97826951115152,71.77571103281059 40.0943421227677,71.41730983039166 35.92208824683214,69.39894408393471 32.00424009525702,65.89037869992694 28.44255995761625,62.36294447184312 24.43990989792098,60.38229712756708 20.318537167198052,59.55231104803098 15.349145355841216,60.420023760390016 10.78680270306379,61.85363532373141 7.0385583677289665,63.400425709345306 4.121372731006717,66.28650732764773 1.679077779530268,70.5307381862573 0,74.90700328710504 0.4918510666995566,78.75509133425302 1.322909765595918,81.2827533834976 2.6967006758368943,83.01816148187383 5.495163641531482,84.54607401150038 8.870279581478199,84.54607401150038 13.042533457129974,83.62178137214018 17.689678017743763,83.22565583757032 21.675367695985273,83.82927567178845 38.05909632987066,87.73393750780885 43.35073539140297,88.5450499751283 49.72783887647587,88.50732382034681 92.62064396437059,87.48871740172926 99.1334305022087,89.46934056440159 106.62991917316212,92.20448393224859 117.45064263941721,96.09026802657738 123.53941963693838,97.93884253822658 128.42400954017506,99.24038897570992 135.17424142035227,100.20240106925436 144.99430237175451,100.560797625136 157.46018285406478,98.82540323770921 169.01020272935853,95.80732281211482 189.3965814229392,88.88458533822202 203.89770769843028,83.28224520422275 212.7679872796247,79.09462819511063 224.11448257605443,73.69975860384515 231.86537697108452,69.11599546833995 238.64952961445303,64.36245333221292 240.43036968355722,61.64613897030698 240.51517159110978,59.94844080643542 238.98873724636607,58.3450580152927 236.52948191343586,56.81712745474885 231.10215979857077,52.742640818643004 229.864051941095,49.98858543031185 229.57572545382703,46.1215840851356 230.89863521942294,43.122295477149855 233.96846429064794,40.85867875007466 239.22618258898896,40.25504723278755 244.99271233576707,39.74573301288172 248.43566980238018,38.651650219237865 251.04756857038072,36.105076110701084 256,27.84283777883162 255.7964754205684,26.597840295620024 253.52378428533225,25.654659919756032 252.14999337480748,24.956706183346594 251.59030078172532,23.655116196557305 253.99867497029427,15.260785634348148 254.99933748514712,11.035312845877398 254.66012985295032,9.752578444147645 253.13369550820659,8.658480868324341 247.536769577385,8.318933235287373 33.988604743509,0 31.257983304764593,0.7168254063078046 30.68133032994489,2.8673002370096485 31.614151318415157,5.545958953615324 34.85358420559666,8.413252027381809 43.130250430801404,13.883735117854021 46.52232675220188,16.109651965187016 51.135550549908146,16.69442635977847 56.528951901581934,15.468286322710286 72.28514641571877,8.054840595741524 77.47502318824475,6.111872354070698 82.6479395787494,6.036417242027002 87.7360540611339,6.60233051711888 92.51888167479667,7.4700639253095495 99.5744004239794,10.507128182251645 157.443222472611,47.536341456676276 160.1060023849728,49.347229575836565 161.32714986099484,50.85630188016321 161.5476348215964,52.64832390920036 159.95335895075385,55.10056223707993 157.32449980129957,56.74167406664832 154.57691798053384,58.7977779798664 150.7269113556251,62.853390208084065 149.607526169177,66.56945630407935 150.60818868459742,70.8891395317765 150.74387173736264,74.11474903790422 149.96369418311133,79.01917556358978 148.21677487748227,81.69774239989206 145.8084006889133,84.24426421234082 143.12866039481398,85.90421759902776 138.54935736058277,88.56391305212883" stroke="#000000" stroke-width="1" fill="none"/>
</svg>