<svg xmlns="http://www.w3.org/2000/svg" viewBox="-162.187 89.2055 298.2 123.7">
	<path d="M 53.9207 124.6614 L 55.4834 122.5009 L 57.5772 121.2439 L 60.9492 120.024 L 63.5787 119.4268 L 70.7596 118.5822 L 108.7179 112.8135 L 111.4108 112.3623 L 113.5453 113.5453 L 114.9836 116.1419 L 115.23 118.705 L 114.426 121.5415 L 112.5874 123.7985 L 110.9361 125.5394 L 109.7146 127.0897 L 108.8967 129.5813 L 108.6063 131.8145 L 107.8704 136.1669 L 106.8412 139.6469 L 105.9542 141.4903 L 105.7602 142.9097 L 106.4627 144.15 L 107.9145 144.9398 L 109.6201 144.9079 L 111.1152 143.9209 L 111.6172 142.3131 L 111.2317 139.8592 L 112.369 130.3233 L 113.0537 128.4431 L 114.2798 127.187 L 115.5601 126.5643 L 116.8978 126.1232 L 119.884 127.0823 L 123.7186 129.3449 L 125.998 130.3831 L 128.3842 131.4042 L 131.5727 132.9379 L 134.3293 135.3222 L 135.0066 137.3647 L 133.4049 139.9826 L 120.5987 151.8324 L 106.0213 162.614 L 95.9818 168.7082 L 88.0349 172.2616 L 77.6915 175.0731 L 67.7937 176.3033 L 54.6709 176.8731 L 40.1876 173.3936 L 32.2108 170.6704 L 17.0801 165.1782 L 7.7468 160.6434 L -4.9099 152.8267 L -12.5344 147.2705 L -16.6932 144.4354 L -18.3045 144.8511 L -19.2387 145.6957 L -20.4821 146.5206 L -21.9439 147.0858 L -23.9404 146.1234 L -26.3842 144.3829 L -27.3768 140.7428 L -28.5643 139.3898 L -49.4253 123.3687 L -59.9098 115.5317 L -69.662 108.427 L -72.3449 106.4473 L -74.1679 105.162 L -76.447 105.1995 L -81.6852 106.9108 L -86.5509 108.7878 L -91.1178 110.9636 L -94.0401 112.8397 L -98.7709 116.4648 L -105.972 123.5762 L -107.676 125.4296 L -108.3733 127.173 L -108.5061 129.398 L -107.8858 133.4103 L -107.7587 136.3916 L -108.6167 138.5946 L -110.5608 141.0766 L -123.1529 158.9291 L -125.1484 162.2696 L -125.7872 163.3268 L -126.9845 164.4045 L -128.567 164.6421 L -131.0806 164.1967 L -133.2839 163.4411 L -134.6617 164.1315 L -136.5494 166.5871 L -139.8038 173.2188 L -141.9873 178.4808 L -143.355 182.9868 L -144.5119 189.5236 L -144.5471 196.3135 L -143.4934 200.2212 L -142.0168 204.3038 L -141.2474 206.314 L -141.3309 207.8023 L -142.9437 211.0291 L -144.6145 211.9228 L -146.6144 211.412 L -153.6569 207.3063 L -157.2617 204.6943 L -159.3504 202.6883 L -160.9047 200.5962 L -161.1868 198.5769 L -161.1653 197.1507 L -159.4993 195.4249 L -158.4033 193.7909 L -157.266 191.5777 L -156.5368 184.5719 L -155.1361 178.5685 L -154.158 174.0038 L -150.8027 166.8527 L -140.3797 148.0311 L -136.8148 142.1648 L -132.5753 136.3113 L -126.2584 127.9023 L -117.5043 117.5043 L -111.258 111.258 L -106.2113 106.7493 L -100.7243 102.3084 L -96.3437 99.7809 L -92.1952 97.7245 L -89.7842 96.3298 L -87.8549 94.9085 L -85.4304 92.2449 L -83.9033 90.6281 L -82.4644 90.2055 L -80.5438 90.8851 L -76.6104 93.288 L -73.6618 95.9883 L -69.3156 99.3831 L -63.2382 104.0954 L -57.6081 108.0295 L -41.8654 116.6158 L -33.2043 121.5539 L -25.9591 126.7721 L -21.3335 130.6945 L -16.8013 132.8273 L -2.5913 137.8952 L 3.3753 140.387 L 10.933 145.1731 L 16.8126 149.6049 L 22.5566 153.6942 L 26.2934 155.4867 L 31.7655 156.7394 L 37.7202 156.613 L 41.9288 155.6921 L 45.3499 153.7354 L 48.0434 150.8029 L 50.2127 147.6771 L 52.0831 143.7146 L 53.4649 139.5532 L 52.9792 135.6752 L 52.852 131.6181 L 52.7252 129.7125 L 52.7352 127.8195 L 53.9207 124.6614" stroke="#000000" stroke-width="1" fill="none"/>
</svg>