<svg xmlns="http://www.w3.org/2000/svg" viewBox="48.7126 -119.762 226.1 162.9">
	<path d="M 153.9743 41.8388 L 98.0064 41.4935 L 76.2277 41.4579 L 72.7711 40.3377 L 69.7532 38.1476 L 67.8906 35.5832 L 67.0735 32.723 L 66.9734 28.967 L 68.2645 25.445 L 70.5165 22.6944 L 97.7129 7.1511 L 99.5768 5.2597 L 101.3145 2.3633 L 102.201 -1.5819 L 101.1567 -5.7419 L 99.2267 -8.8609 L 96.6051 -10.8115 L 75.8917 -21.5968 L 73.2952 -23.4737 L 71.365 -25.6379 L 69.6962 -28.0351 L 68.702 -30.6951 L 50.1925 -84.6247 L 49.7126 -87.298 L 50.4977 -90.5833 L 51.7969 -93.4442 L 54.0658 -95.8273 L 56.5535 -97.2933 L 71.5297 -101.9635 L 74.152 -101.9623 L 77.1787 -100.9411 L 79.5139 -99.5074 L 81.4864 -97.5386 L 82.7926 -94.9246 L 94.604 -60.007 L 95.8176 -58.1008 L 97.6723 -56.9932 L 99.6199 -56.5702 L 101.4412 -56.9532 L 103.3049 -57.9694 L 104.7894 -59.9716 L 105.1862 -61.7212 L 105.3808 -64.1798 L 111.2203 -110.5016 L 112.3256 -113.1318 L 114.4596 -115.9478 L 117.0486 -117.8749 L 120.1855 -118.7623 L 123.4316 -118.5744 L 126.2307 -117.6595 L 128.431 -116.3802 L 130.1505 -114.4721 L 131.7517 -111.5552 L 132.2486 -109.5887 L 133.0231 -105.2998 L 134.9777 -99.919 L 137.2528 -95.0767 L 140.0339 -90.5509 L 143.751 -86.0832 L 146.4061 -83.2387 L 151.4638 -78.9629 L 153.3687 -76.6735 L 154.5314 -73.9201 L 154.868 -71.4656 L 154.6226 -68.5576 L 147.9208 -44.1011 L 147.9875 -41.5971 L 148.4675 -39.441 L 150.1279 -37.4264 L 151.9992 -35.9514 L 155.3124 -34.6123 L 159.6801 -35.2551 L 165.9705 -37.0205 L 174.1248 -40.5978 L 181.3856 -45.0285 L 187.3735 -50.304 L 192.4172 -56.1029 L 196.5336 -62.2169 L 199.7482 -69.6066 L 214.0244 -103.7912 L 216.2848 -106.3978 L 219.793 -108.9097 L 223.2503 -110.4152 L 227.9468 -111.015 L 245.9815 -110.7867 L 248.713 -110.0684 L 250.888 -108.8628 L 252.9784 -107.2663 L 255.0179 -104.1066 L 267.304 -82.1362 L 267.8934 -79.8996 L 267.6903 -77.1871 L 267.1246 -74.5761 L 265.3362 -71.6282 L 237.3426 -38.7406 L 235.8832 -36.1077 L 235.2078 -33.0601 L 235.4935 -29.9971 L 236.5634 -27.3548 L 272.4129 26.2191 L 273.6596 29.6159 L 273.8104 32.7633 L 272.4855 36.4655 L 270.7732 38.8786 L 268.3191 40.801 L 264.6765 42.1242 L 153.9743 41.8388" stroke="#000000" stroke-width="1" fill="none"/>
</svg>