<svg xmlns="http://www.w3.org/2000/svg" viewBox="-4.7507 -115.373 241.8 106.1">
	<path d="M 181.4614 -87.0274 L 147.524 -65.0836 L 147.0733 -64.1986 L 147.1489 -63.5537 L 148.8151 -60.8883 L 148.8198 -60.0574 L 148.6431 -59.2704 L 148.0455 -58.5468 L 147.0966 -57.9932 L 144.0992 -57.7907 L 136.8946 -58.2629 L 135.8656 -58.2441 L 133.9276 -57.8104 L 128.8593 -55.6552 L 112.9132 -48.6581 L 109.5924 -47.5725 L 108.6275 -46.698 L 108.1985 -43.4607 L 107.672 -41.8534 L 107.0009 -40.5271 L 105.0128 -38.4563 L 102.8526 -37.0757 L 100.0156 -36.2296 L 97.6881 -36.0753 L 96.238 -36.3775 L 92.6408 -37.6401 L 90.7714 -37.9566 L 88.9295 -37.8639 L 86.304 -36.9814 L 82.0416 -34.7993 L 80.3535 -33.0213 L 79.8735 -32.0398 L 79.0049 -29.7528 L 78.5166 -28.591 L 77.8853 -27.6609 L 75.9633 -26.6071 L 67.2245 -24.5967 L 65.2537 -24.4223 L 62.3782 -25.6965 L 60.975 -26.9217 L 58.8588 -30.1089 L 58.0659 -30.981 L 55.817 -31.7081 L 51.8013 -31.4003 L 48.5921 -31.2342 L 43.8902 -31.4982 L 40.93 -31.83 L 36.2534 -31.4367 L 33.1527 -30.9212 L 29.7636 -29.9375 L 16.3818 -26.1156 L -0.8017 -20.7416 L -1.8255 -20.0604 L -2.9892 -18.7004 L -3.5513 -17.1932 L -3.7507 -15.0434 L -2.9444 -13.1344 L -1.9342 -11.9895 L -0.6862 -10.8742 L 1.6876 -10.2873 L 4.7046 -10.455 L 7.2609 -11.2311 L 9.2201 -12.2644 L 13.686 -16.5379 L 15.7467 -18.7456 L 18.9987 -20.9631 L 21.1285 -22.039 L 24.1962 -23.2001 L 26.6701 -23.7079 L 29.5941 -24.12 L 32.8307 -23.8769 L 35.6553 -23.3627 L 39.0863 -22.5539 L 42.3247 -22.0042 L 45.665 -22.2427 L 47.8431 -22.8253 L 49.5288 -23.2456 L 50.9543 -22.9571 L 52.2758 -22.3158 L 53.4467 -21.0822 L 55.1317 -18.2135 L 57.5221 -16.4915 L 59.4412 -15.8902 L 60.9489 -15.8699 L 63.894 -16.0692 L 67.1474 -16.7417 L 69.3347 -17.2871 L 71.7318 -18.1027 L 74.2429 -19.1448 L 77.2341 -21.0397 L 82.5467 -25.3361 L 86.6801 -28.3776 L 90.3467 -30.3419 L 93.7314 -31.6415 L 97.1275 -32.3396 L 99.2332 -32.6566 L 103.6387 -33.7946 L 104.8301 -34.3591 L 106.7847 -35.1536 L 110.1192 -37.2529 L 112.1495 -38.8983 L 114.2449 -40.9661 L 117.4268 -44.2756 L 119.8887 -46.5834 L 122.6288 -48.5445 L 126.9001 -50.9468 L 130.1914 -52.1933 L 133.9552 -53.3398 L 137.4724 -54.1077 L 140.7529 -54.4997 L 145.1829 -54.8117 L 146.7718 -54.7225 L 148.2208 -54.638 L 149.4116 -55.034 L 150.5596 -55.6867 L 151.6839 -56.9477 L 152.3281 -58.1683 L 153.6661 -61.0082 L 154.8102 -62.5317 L 156.517 -64.1063 L 163.3879 -67.4936 L 165.2594 -67.98 L 167.6033 -67.8115 L 170.8541 -66.9975 L 181.9745 -64.4109 L 185.3191 -63.9471 L 189.0848 -63.8458 L 191.6636 -64.1025 L 193.9482 -64.5136 L 198.9857 -66.2352 L 203.7746 -68.8259 L 206.6808 -70.4619 L 209.4644 -72.0772 L 212.9051 -74.1337 L 216.4255 -76.854 L 220.4659 -80.5657 L 222.5755 -83.0036 L 224.9623 -85.9959 L 227.8159 -90.0656 L 230.4369 -95.0679 L 232.0672 -99.5557 L 235.681 -108.9957 L 236.0506 -111.4455 L 235.2719 -112.8166 L 234.126 -113.9078 L 232.4967 -114.3733 L 231.0105 -113.9235 L 222.1355 -109.4719 L 203.7191 -100.5909 L 196.798 -96.6364 L 191.1339 -93.1538 L 181.4614 -87.0274" stroke="#000000" stroke-width="1" fill="none"/>
</svg>