<svg xmlns="http://www.w3.org/2000/svg" viewBox="-1 -1 258 167.9">
	<path d="M250.40709065473504,63.13037261758349 255.5024102011361,102.0517708952378 256,107.08865554532326 255.5024102011361,109.57723473296144 254.1290623546465,111.74727568482548 247.8196236977786,121.38305273433686 246.68511895515667,122.95583435168604 245.49090343648453,123.53318455349361 243.97823044676596,123.71236220085942 240.51500544251687,123.53318455349361 224.53242108550373,122.65720493436908 199.89177421853395,120.02926598651389 196.76691027845814,119.21301219493714 194.796454672799,118.01849442736136 193.24397449882494,116.32626087481302 191.95024102018021,112.94179360048231 191.77110869269578,109.59714336592312 191.87062665233535,107.60628002616997 191.23371170891033,106.5710310590283 187.790390297122,106.33212744775233 184.22764733356638,106.25249291081124 166.05566785882118,105.21724391565817 114.8835328877334,102.48976088444142 108.69351578296586,101.75314135511402 104.35453273209018,100.57853181238067 99.89612812944719,98.36867310719602 81.74405224716276,82.42185202590873 73.98165137596041,75.79227324416196 72.68791789764872,74.75702362639925 70.83688384375687,74.45839392508636 68.5280671745905,74.87647550639258 66.79645467279899,76.03117699908026 65.66194993017703,77.1460611740732 62.377857253745404,87.14020035938847 60.646244751953894,94.62584913446241 56.30726170107821,117.28187512284325 47.370548903997545,162.87261730352233 46.87295910413453,163.82823067531044 46.21614056924785,164.66439236069243 44.98211786665328,165.56027986572306 43.50925206019107,165.898726251875 41.698025190554695,165.85890903019853 40.86207432751751,165.5204626434794 38.772197169758016,162.87261730352233 36.6823200126646,159.90623401434203 35.129839838357526,156.54167826149293 33.457938112283145,154.8892632245936 25.576115689313504,148.5782318051642 21.655108070122935,144.95486325346945 19.206966257394573,142.5857375225234 17.694293267009932,140.45551513220482 16.161716684497556,135.25936481399748 16.380656196237464,132.83051275852117 16.818535219717273,130.9790107036522 17.893329186622104,128.82887920019738 17.33602861137499,127.47509265137866 15.345669413588103,126.79819936376497 11.683408489726839,125.54395589402402 8.53864095752329,123.53318455349361 4.6773441143828896,120.82561113687593 1.691805317869077,118.19767209412649 0.6170113512972831,115.98781415754586 0.11942155176730258,112.88206770524508 0,110.15458508695578 3.0253459804362466,104.99824893294677 15.2262478618208,83.1584718366042 30.930181931043844,54.94791628157933 33.716684807945484,49.85130047365234 36.32405535669662,47.44235297976454 37.39884932360145,46.566372044140735 40.98149587928481,45.849660358725714 44.14616700361609,47.80070881273337 48.14678899065153,50.587920759230244 64.60705955539993,67.84872274978213 66.0799253615291,68.60525142181828 67.29404447232898,68.30662168433463 68.42854921495093,66.15648752117599 74.91712019897021,53.45476717253824 83.59508630038853,38.76217758550794 85.18737365861804,36.39304688666788 86.71995024113042,35.835604353158985 89.48654952590432,37.06994138356426 91.07883688380079,38.0056484671055 137.2551702691262,64.723064694583 144.7986316282556,67.6098189562005 150.03327631788562,68.58534277289174 215.15782926494327,72.42771190886972 217.68558544584954,71.92999571610574 220.9696781219481,70.3970298111479 223.67656663067186,68.4857995270465 225.40817913246337,65.32032421065418 225.84605815594318,62.31411790861915 225.34846835674622,55.16691148066487 223.47753071105967,45.4514871953964 217.82491058941153,29.763462071542868 216.29233400756522,26.4188063388141 215.25734722458282,23.65150172607665 214.70004664933572,20.267028252526494 214.70004664933572,15.926938407788313 215.6554190641402,6.271232597676753 217.30741719808685,2.468675782098725 219.57642668333077,0.1791780850055192 221.48717151293977,0 223.21878401539735,0.4578995492681625 225.12952884500632,2.6677625338742104 226.16451562765567,4.021552422314488 227.1596952263826,5.395250948404952 228.9510185042243,6.908310151355872 233.07106204336006,8.938994799967409 236.5342870472761,9.894611076833566 240.8732700981518,9.476528957758449 243.1024723994733,10.372419208457634 244.23697714209527,11.965112948458918 244.89379567731498,14.5134228272884 246.64531177156726,35.93514766291579 250.40709065473504,63.13037261758349" stroke="#000000" stroke-width="1" fill="none"/>
</svg>