<svg xmlns="http://www.w3.org/2000/svg" viewBox="-208.441 111.968 297.8 89.76">
	<path d="M -9.6594 200.2855 l -50.8266 -0.1767 L -88.8668 200.1859 L -117.9752 200.0124 L -148.8237 200.071 L -159.2728 200.0377 L -161.8992 199.5839 L -163.9363 198.9757 L -165.2007 198.1412 L -166.7743 196.2172 L -167.8422 194.2339 L -168.3562 192.5884 L -168.4714 190.7579 L -168.4085 184.0918 L -168.6718 182.1614 L -169.7667 179.0833 L -171.1309 176.9002 L -173.7591 174.203 L -175.9734 173.1284 L -194.1184 166.0827 L -196.1958 164.8156 L -198.0856 163.3458 L -200.5433 161.333 L -202.4214 159.1505 L -203.7375 157.0443 L -205.0456 154.6765 L -206.3116 151.9191 L -207.0569 148.9431 L -207.4412 145.0362 L -207.2717 142.7926 L -206.9227 140.6079 L -206.5694 138.6129 L -204.2446 132.4573 L -201.8506 128.6527 L -198.7781 125.0654 L -196.2785 123.076 L -193.2652 120.7655 L -189.8268 118.7238 L -185.9139 116.9842 L -179.3082 114.8445 L -173.7256 113.5365 L -169.0524 112.9679 L -165.0626 112.9972 L -114.1754 113.1361 L -112.0163 113.7108 L -109.6853 114.9263 L -106.5633 117.9562 L -105.4087 120.3985 L -104.8107 122.59 L -104.6768 125.4563 L -105.1097 129.0616 L -105.8957 131.6904 L -108.4417 135.8465 L -110.8232 138.2538 L -115.0436 141.1476 L -117.7288 142.6117 L -121.0501 143.7893 L -124.6845 144.3288 L -130.5434 144.7833 L -167.042 144.3965 L -169.0973 145.0395 L -170.6576 145.9717 L -172.2475 147.5424 L -173.0411 149.1071 L -173.5813 150.6204 L -173.6797 152.5203 L -173.2272 154.5248 L -172.6462 155.9574 L -170.9192 157.8068 L -169.9236 158.5314 L -142.9128 176.5186 L -138.5842 178.6449 L -133.772 180.4476 L -128.3132 181.8677 L -123.7967 182.4658 L -101.9043 182.6593 L -98.8894 182.2717 L -96.9779 181.7186 L -94.6687 179.6985 L -93.1646 176.9844 L -92.5654 173.8738 L -92.7171 167.6411 L -92.2501 163.9076 L -91.5639 161.5763 L -90.4366 158.9907 L -89.5717 157.4028 L -78.5317 141.7826 L -66.1294 124.1354 L -63.5874 121.7561 L -60.6284 119.907 L -58.1649 118.7738 L -55.6779 117.8611 L -52.2556 117.6679 L -49.857 117.6654 L -45.8884 118.3921 L -42.6693 119.5656 L 48.124 173.7765 L 51.4548 175.5858 L 53.9292 176.0704 L 55.8713 175.8402 L 57.795 174.8946 L 59.4534 173.0674 L 60.4703 171.128 L 60.9402 168.9532 L 61.2107 166.048 L 60.6195 161.9924 L 59.8625 159.7292 L 58.5321 156.7769 L 57.1746 154.3759 L 55.561 152.1136 L 53.2991 149.9571 L 49.3441 147.469 L 46.3987 145.9106 L 41.2657 144.3725 L 36.7273 142.5055 L 34.2191 140.8236 L 31.6944 137.3777 L 30.8221 134.93 L 30.533 131.5408 L 30.9719 128.402 L 32.1885 125.8676 L 33.8054 123.425 L 36.0902 121.5483 L 37.2039 120.7242 L 40.9339 119.3767 L 44.0644 119.1735 L 47.2052 119.9471 L 74.748 129.1793 L 77.5025 130.0661 L 80.3793 131.5605 L 82.4846 133.2377 L 84.8306 135.9402 L 86.7572 138.8406 L 87.8931 141.8931 L 88.3312 144.6976 L 88.2797 150.9717 L 88.185 157.9997 L 87.8937 164.21 L 88.0186 168.0225 L 87.926 181.227 L 87.7448 184.5039 L 87.1271 186.8993 L 86.1763 189.3105 L 84.8047 191.6425 L 82.6397 194.2139 L 80.4194 196.2853 L 76.8012 198.589 L 73.2071 200.108 L 66.3652 200.7279 l -76.0246 -0.4424" stroke="#000000" stroke-width="1" fill="none"/>
</svg>