<svg xmlns="http://www.w3.org/2000/svg" viewBox="-258.915 -6.8196 255.7 165.2">
	<path d="M -184.3248 6.0532 L -240.4312 17.4565 L -246.3419 18.6658 L -249.7845 20.0044 L -255.0632 23.1643 L -256.5931 24.8521 L -257.7565 27.3312 L -257.9151 29.838 L -257.49 32.6244 L -256.806 34.1046 L -252.9176 38.7908 L -248.3176 43.3897 L -247.1326 45.1701 L -246.4632 47.4464 L -246.446 49.7134 L -247.6756 52.936 L -252.2983 59.6664 L -254.8655 65.0601 L -256.138 69.1023 L -256.8228 72.8267 L -257.1922 76.2438 L -256.8597 81.3164 L -256.2207 85.2097 L -254.7605 90.0426 L -252.4168 94.6229 L -249.2026 99.199 L -245.6458 102.9464 L -241.8059 105.9616 L -238.1723 108.2439 L -234.0594 110.2026 L -211.9316 118.1854 L -200.7997 121.6575 L -181.9092 127.5781 L -157.7601 134.8701 L -118.2273 147.5253 L -103.9707 152.0825 L -93.9679 155.2962 L -89.3138 156.7852 L -86.3552 157.4134 L -83.5461 157.2618 L -81.6111 156.666 L -79.2807 155.2691 L -77.239 152.6368 L -75.7435 149.5277 L -74.5535 144.9832 L -71.1216 131.3921 L -70.2438 126.0592 L -70.3135 122.7187 L -70.6696 118.616 L -71.607 114.7071 L -73.4357 111.1996 L -75.165 107.8717 L -77.6536 104.504 L -80.9354 101.2192 L -86.11 96.6898 L -104.2279 81.7452 L -115.4064 72.9416 L -124.9672 65.443 L -134.6014 57.2683 L -139.9776 52.9523 L -144.0188 49.6278 L -146.2923 47.3421 L -147.6577 44.8551 L -148.6986 41.364 L -148.989 37.5637 L -148.5566 31.9086 L -147.735 28.1665 L -146.6283 25.2114 L -145.2672 22.5933 L -142.5312 18.1297 L -140.3774 15.9516 L -138.291 14.5419 L -135.3121 13.2288 L -131.3209 12.3174 L -125.444 11.2308 L -120.0683 10.3671 L -110.2238 9.3391 L -106.1671 9.2528 L -102.0756 9.542 L -99.0074 10.674 L -97.5164 12.3209 L -97.0041 13.4435 L -96.6146 14.8335 L -96.4953 16.7074 L -97.0863 18.6437 L -98.0079 20.6623 L -102.5304 26.0034 L -103.9765 28.1688 L -104.7999 29.8688 L -105.2772 31.7115 L -105.5026 33.4179 L -105.3574 35.3181 L -104.5435 37.9506 L -102.1813 41.1373 L -99.7217 42.9845 L -96.9763 44.0498 L -94.5975 44.3238 L -91.8116 44.0963 L -89.5872 43.167 L -85.9636 40.9663 L -83.6806 38.9194 L -75.8227 31.6863 L -71.115 27.9984 L -66.9591 25.5019 L -61.4863 23.8214 L -54.7351 22.6562 L -50.6576 22.1727 L -47.0039 21.9906 L -44.0336 22.3953 L -42.0607 23.6691 L -40.891 24.7016 L -40.4577 26.2931 L -40.1999 27.6016 L -40.5583 29.2512 L -41.4464 31.1471 L -52.5388 39.9041 L -61.8562 47.4841 L -63.0682 48.8151 L -65.314 51.7105 L -66.6789 54.4032 L -67.4767 56.6524 L -68.0848 59.4344 L -68.5198 62.0264 L -68.7044 65.0299 L -68.2736 69.7839 L -67.2961 73.4459 L -65.2997 77.3855 L -62.3567 81.4245 L -59.6222 83.7343 L -56.543 86.2115 L -47.1306 92.9055 L -36.0434 100.3346 L -23.9455 108.7133 L -22.507 109.2867 L -20.7777 109.5018 L -19.0444 109.1195 L -17.1533 108.3221 L -15.4634 106.6925 L -13.1358 102.7554 L -10.6848 96.982 L -5.5568 85.2728 L -4.8106 82.9711 L -4.1934 80.0152 L -4.5294 73.9712 L -5.1484 68.6595 L -7.0125 57.0072 L -8.1139 53.1145 L -10.8888 45.349 L -12.3466 41.5124 L -16.7056 32.3192 L -18.9332 28.6414 L -21.4865 25.4695 L -24.1728 22.2408 L -26.9975 19.5777 L -30.3519 17.1607 L -34.6659 14.8926 L -39.299 13.0063 L -48.7917 9.9189 L -60.7677 6.4774 L -72.0882 4.0164 L -84.0977 0.1746 L -93.1568 -2.367 L -99.4095 -4.4877 L -103.9889 -5.3253 L -110.2475 -5.7778 L -117.697 -5.8196 L -123.2999 -5.2915 L -129.8548 -4.2405 L -139.311 -2.3205 L -169.2422 3.1582 L -184.3248 6.0532" stroke="#000000" stroke-width="1" fill="none"/>
</svg>