<svg xmlns="http://www.w3.org/2000/svg" viewBox="-9.1958 25.489 264.6 130.7">
	<path d="M 38.5422 124.5318 L 59.6044 145.2717 L 65.4871 150.3845 L 70.0958 153.8287 L 71.8266 154.8876 L 72.5138 155.1791 L 73.3188 155.1227 L 74.0744 154.7637 L 74.6332 154.0864 L 74.9443 153.4457 L 74.9486 152.6318 L 71.4625 137.7326 L 69.9371 130.854 L 69.7636 128.7686 L 69.8671 127.0098 L 70.1624 124.9737 L 70.7511 123.1093 L 71.7135 120.7831 L 73.0403 118.8553 L 74.4247 117.1529 L 76.2861 115.4222 L 78.2463 114.2971 L 80.8724 113.0227 L 95.143 106.1128 L 100.9836 103.25 L 102.2846 102.2122 L 103.4626 100.9266 L 104.4555 99.8563 L 105.3482 98.3214 L 106.0423 97.0006 L 107.8974 93.1394 L 108.9869 91.9227 L 110.3404 90.5146 L 112.0286 89.6584 L 113.3713 89.1261 L 116.663 88.2192 L 119.2582 87.2391 L 120.7938 86.2886 L 121.7919 85.2972 L 122.737 83.9087 L 123.2291 82.1908 L 124.0255 79.2519 L 124.4669 77.372 L 125.1572 75.3146 L 125.9614 73.8487 L 126.9065 72.4602 L 128.091 71.1126 L 129.3413 69.9128 L 131.1555 68.6313 L 133.2043 67.4372 L 135.3895 66.4922 L 137.6992 65.7797 L 139.6621 65.5318 L 141.2493 65.636 L 142.5155 65.8317 L 144.5166 66.6372 L 157.0353 74.0764 L 158.2542 74.7214 L 159.5938 74.8622 L 160.671 74.5369 L 163.466 73.2019 L 166.8076 71.0473 L 169.2691 69.0195 L 171.8071 66.2636 L 173.675 64.471 L 175.3125 63.4528 L 177.0502 62.8994 L 178.3538 62.7388 L 180.1757 62.9303 L 182.1769 63.7358 L 183.6665 64.7694 L 184.8072 66.1579 L 185.4261 67.0999 L 186.0205 68.2743 L 186.5333 69.5811 L 187.377 70.7035 L 188.4433 71.254 L 189.5418 71.3695 L 213.8052 68.6105 L 215.3727 68.2585 L 216.3776 67.8473 L 217.1576 67.2558 L 232.8076 51.8611 L 246.5633 38.3815 L 251.867 32.8936 L 254.1507 29.5941 L 254.3908 28.7266 L 254.2478 27.8971 L 253.7307 27.4043 L 253.0744 26.8185 L 252.3068 26.5185 L 251.4296 26.489 L 250.2063 26.658 L 223.9805 32.1082 L 205.7763 35.2066 L 185.7731 37.8966 L 161.9717 40.1248 L 147.1291 41.0079 L 133.4322 41.5573 L 93.2513 41.7663 L 88.7325 42.1058 L 88.1324 42.4029 L 87.8147 43.1056 L 87.8332 43.7027 L 88.3112 44.5673 L 90.6174 47.754 L 98.3542 61.1275 L 101.6439 67.9727 L 101.7857 68.9429 L 101.3997 70.2962 L 100.7361 71.1974 L 99.6281 71.817 L 98.7345 71.9424 L 97.0506 71.9846 L 89.7444 70.6216 L 89.0585 70.1893 L 88.4907 69.5345 L 87.9376 68.7403 L 87.4824 67.6588 L 86.4118 63.4118 L 85.9381 61.7332 L 85.0597 60.1687 L 80.7446 54.7036 L 80.0964 54.0404 L 79.2647 53.5771 L 78.4086 53.3461 L 73.6985 52.4126 L 72.7408 52.3746 L 72.1391 52.6872 L 71.5215 53.28 L 71.1876 54.1376 L 71.4016 55.1938 L 78.926 72.006 L 81.9143 79.3988 L 82.0356 81.3379 L 81.7566 83.2192 L 81.2873 84.7203 L 80.7242 86.2116 L 79.3931 88.9533 L 77.6292 91.947 L 76.5478 93.0862 L 74.845 94.0818 L 72.9303 94.7732 L 65.0417 97.4052 L 63.4889 97.6178 L 61.9803 97.5376 L 59.2301 97.0292 L 56.6435 96.3815 L 54.1962 95.3099 L 51.5388 93.9187 L 49.2269 92.2036 L 47.696 90.7898 L 46.7827 88.7832 L 39.4168 75.7465 L 33.569 66.5653 L 32.7894 65.6064 L 31.8051 65.0487 L 30.4814 64.6277 L 29.2826 64.5644 L 27.5742 64.839 L 25.5232 65.2812 L 23.7937 65.7572 L -5.3269 75.0373 L -7.0216 75.9555 L -7.7587 76.9116 L -8.1958 77.9776 L -7.9589 78.8169 L -7.4058 79.6111 L -6.6919 80.4222 L 6.661 93.7122 L 38.5422 124.5318" stroke="#000000" stroke-width="1" fill="none"/>
</svg>